name analog
datacolumns 19
datarows 22
range 0.47000000000000003 0.4805
endheader
time	ground_force_vx	ground_force_vy	ground_force_vz	ground_force_px	ground_force_py	ground_force_pz	l_ground_force_vx	l_ground_force_vy	l_ground_force_vz	l_ground_force_px	l_ground_force_py	l_ground_force_pz	ground_torque_x	ground_torque_y	ground_torque_z	l_ground_torque_x	l_ground_torque_y	l_ground_torque_z
0.47000000000000003	-0.0	-0.0	-0.0	-5.003689765930176	32.244895935058594	-336.9649658203125	1.389289140701294	-30.607688903808597	-321.2529296875	-0.0	-0.0	-0.0	-0.0	-0.0	-0.0	87412.015625	-27827.986328125	1736.6856689453125
0.47050000000000003	-0.0	-0.0	-0.0	-4.89637565612793	31.73042297363281	-341.32305908203125	1.5263291597366333	-30.019350051879883	-324.9413146972656	-0.0	-0.0	-0.0	-0.0	-0.0	-0.0	88571.5625	-27995.0234375	1588.5865478515625
0.47100000000000003	-0.0	-0.0	-0.0	-5.184451103210449	31.8093204498291	-345.6415405273437	1.2801364660263062	-29.607885360717773	-329.2102355957031	-0.0	-0.0	-0.0	-0.0	-0.0	-0.0	89936.546875	-28221.85546875	1397.737060546875
0.47150000000000003	-0.0	-0.0	-0.0	-4.501596927642822	31.799036026000977	-348.3447265625	1.467557668685913	-28.901365280151367	-332.392333984375	-0.0	-0.0	-0.0	-0.0	-0.0	-0.0	91219.90625	-28533.26171875	1292.144775390625
0.47200000000000003	-0.0	-0.0	-0.0	-3.729778051376343	31.689233779907227	-355.05419921875	1.6753348112106323	-28.979639053344727	-339.9936218261719	-0.0	-0.0	-0.0	-0.0	-0.0	-0.0	92704.46875	-29276.15625	1131.2664794921875
0.47250000000000003	-0.0	-0.0	-0.0	-2.6866607666015625	31.630956649780277	-359.0611572265625	1.3510791063308716	-28.11678695678711	-346.5066833496094	-0.0	-0.0	-0.0	-0.0	-0.0	-0.0	94194.796875	-29795.9765625	943.0684814453124
0.47300000000000003	-0.0	-0.0	-0.0	-1.1701091527938845	32.09730911254883	-363.6275024414063	1.4296081066131592	-27.51899719238281	-351.20623779296875	-0.0	-0.0	-0.0	-0.0	-0.0	-0.0	96348.65625	-30557.869140625	969.517578125
0.47350000000000003	-0.0	-0.0	-0.0	0.6408042907714844	31.693302154541016	-367.8898315429688	1.8050380945205688	-27.1147575378418	-358.2956848144531	-0.0	-0.0	-0.0	-0.0	-0.0	-0.0	97743.09375	-31602.44140625	772.5327758789062
0.47400000000000003	-0.0	-0.0	-0.0	1.41691792011261	30.907367706298828	-371.3797912597656	2.7190961837768555	-26.527307510375977	-363.8810424804688	-0.0	-0.0	-0.0	-0.0	-0.0	-0.0	99540.03125	-32022.513671875	736.7969360351562
0.47450000000000003	-0.0	-0.0	-0.0	3.253777980804444	30.325275421142575	-373.9346008300781	3.026507616043091	-25.831113815307617	-368.3956909179688	-0.0	-0.0	-0.0	-0.0	-0.0	-0.0	101198.046875	-33216.296875	599.245849609375
0.47500000000000003	-0.0	-0.0	-0.0	3.075221300125122	29.444551467895508	-373.4361267089844	3.282299041748047	-25.22334289550781	-375.4420471191406	-0.0	-0.0	-0.0	-0.0	-0.0	-0.0	103142.0859375	-33514.40234375	487.904052734375
0.47550000000000003	-0.0	-0.0	-0.0	3.736286640167236	28.553363800048828	-373.8315124511719	3.209381580352783	-25.005407333374023	-381.807861328125	-0.0	-0.0	-0.0	-0.0	-0.0	-0.0	104586.734375	-34194.36328125	355.3829040527344
0.47600000000000003	-0.0	-0.0	-0.0	3.1011805534362797	26.645532608032227	-374.05950927734375	2.682234287261963	-24.948352813720703	-386.1616821289063	-0.0	-0.0	-0.0	-0.0	-0.0	-0.0	106139.765625	-34543.91015625	117.72306823730467
0.47650000000000003	-0.0	-0.0	-0.0	2.897202014923096	26.057897567749023	-372.7729797363281	2.541178941726685	-24.70920753479004	-389.4882507324219	-0.0	-0.0	-0.0	-0.0	-0.0	-0.0	106610.5859375	-34971.69921875	-116.11753845214844
0.47700000000000004	-0.0	-0.0	-0.0	2.7868363857269287	25.062969207763672	-372.1672668457031	2.139575481414795	-24.938127517700195	-395.3404541015625	-0.0	-0.0	-0.0	-0.0	-0.0	-0.0	107998.125	-35194.3671875	-275.3056335449219
0.47750000000000004	-0.0	-0.0	-0.0	2.665621280670166	24.24346923828125	-374.14459228515625	2.175548791885376	-24.761598587036133	-396.9438781738281	-0.0	-0.0	-0.0	-0.0	-0.0	-0.0	109418.2578125	-35482.78515625	-480.7943420410156
0.47800000000000004	-0.0	-0.0	-0.0	2.497894287109375	23.416433334350582	-376.3200378417969	2.17544174194336	-25.49336051940918	-401.1335754394531	-0.0	-0.0	-0.0	-0.0	-0.0	-0.0	110734.6953125	-35984.41796875	-394.0991821289063
0.47850000000000004	-0.0	-0.0	-0.0	1.8734207153320312	22.257970809936523	-377.0559997558594	2.5619921684265137	-25.33774948120117	-406.5526428222656	-0.0	-0.0	-0.0	-0.0	-0.0	-0.0	111511.140625	-36143.02734375	-238.37457275390625
0.47900000000000004	-0.0	-0.0	-0.0	1.773411512374878	21.50200462341309	-378.1274719238281	2.8954782485961914	-25.38016128540039	-408.0743713378906	-0.0	-0.0	-0.0	-0.0	-0.0	-0.0	112546.9296875	-36340.5546875	-81.53713989257812
0.47950000000000004	-0.0	-0.0	-0.0	0.6785997152328491	20.24081039428711	-380.2033996582031	3.658513307571411	-25.50047874450684	-410.3372802734375	-0.0	-0.0	-0.0	-0.0	-0.0	-0.0	113056.9375	-36574.66796875	-152.19537353515625
0.48	-0.0	-0.0	-0.0	0.8921051025390625	19.495553970336918	-379.4872741699219	3.8818259239196777	-25.12606811523437	-413.6602783203125	-0.0	-0.0	-0.0	-0.0	-0.0	-0.0	113788.6640625	-36889.40625	-10.793432235717772
0.4805	-0.0	-0.0	-0.0	0.5679718255996704	18.806514739990234	-380.2295837402344	4.403250694274902	-24.81839370727539	-415.1412963867188	-0.0	-0.0	-0.0	-0.0	-0.0	-0.0	114508.875	-36953.5859375	-62.50035858154297
